<svg width="18" height="20" viewBox="0 0 18 20" fill="none" xmlns="http://www.w3.org/2000/svg">
<path opacity="0.4" d="M17.8349 14.305C17.5549 15.055 16.9649 15.625 16.1949 15.885C15.1149 16.245 14.0049 16.515 12.8849 16.705C12.7749 16.725 12.6649 16.745 12.5549 16.755C12.3749 16.785 12.1949 16.805 12.0149 16.825C11.7949 16.855 11.5649 16.875 11.3349 16.895C10.7049 16.945 10.0849 16.975 9.4549 16.975C8.8149 16.975 8.17489 16.945 7.54489 16.885C7.27489 16.865 7.01489 16.835 6.75489 16.795L6.3149 16.735C6.2049 16.715 6.0949 16.705 5.9849 16.685C4.8749 16.505 3.7749 16.235 2.7049 15.875C1.9049 15.605 1.2949 15.035 1.0249 14.305C0.754895 13.585 0.854895 12.745 1.2849 12.025L2.4149 10.145C2.6549 9.73502 2.8749 8.94502 2.8749 8.46502V6.60502C2.8749 2.97502 5.8249 0.0250244 9.4549 0.0250244C13.0749 0.0250244 16.0249 2.97502 16.0249 6.60502V8.46502C16.0249 8.94502 16.2449 9.73502 16.4949 10.145L17.6249 12.025C18.0349 12.725 18.1149 13.545 17.8349 14.305Z" fill="white"/>
<path d="M9.43487 8.73487C9.2333 8.73487 9.03999 8.6548 8.89747 8.51227C8.75494 8.36974 8.67487 8.17643 8.67487 7.97487V4.87487C8.67487 4.6733 8.75494 4.47999 8.89747 4.33747C9.03999 4.19494 9.2333 4.11487 9.43487 4.11487C9.63643 4.11487 9.82974 4.19494 9.97227 4.33747C10.1148 4.47999 10.1949 4.6733 10.1949 4.87487V7.97487C10.1849 8.39487 9.84487 8.73487 9.43487 8.73487ZM12.2649 17.9849C12.0546 18.567 11.6701 19.0703 11.1638 19.4263C10.6575 19.7824 10.0538 19.9739 9.43487 19.9749C8.64487 19.9749 7.86487 19.6549 7.31487 19.0849C6.99487 18.7849 6.75487 18.3849 6.61487 17.9749C6.74487 17.9949 6.87487 18.0049 7.01487 18.0249C7.24487 18.0549 7.48487 18.0849 7.72487 18.1049C8.29487 18.1549 8.87487 18.1849 9.45487 18.1849C10.0249 18.1849 10.5949 18.1549 11.1549 18.1049C11.3649 18.0849 11.5749 18.0749 11.7749 18.0449L12.2649 17.9849Z" fill="white"/>
</svg>
