<svg width="15" height="15" viewBox="0 0 15 15" fill="none" xmlns="http://www.w3.org/2000/svg">
<path opacity="0.4" d="M7.5 15C11.6423 15 15 11.6423 15 7.5C15 3.3585 11.6423 0 7.5 0C3.35775 0 0 3.3585 0 7.5C0 11.6423 3.35775 15 7.5 15Z" fill="white"/>
<path d="M9.19503 7.57648L8.06253 7.17898V4.63648H8.33253C8.94003 4.63648 9.43503 5.16898 9.43503 5.82148C9.43503 6.12898 9.69003 6.38398 9.99753 6.38398C10.305 6.38398 10.56 6.12898 10.56 5.82148C10.56 4.54648 9.56253 3.51148 8.33253 3.51148H8.06253V3.07648C8.06253 2.76898 7.80753 2.51398 7.50003 2.51398C7.19253 2.51398 6.93753 2.76898 6.93753 3.07648V3.51148H6.45003C5.34003 3.51148 4.43253 4.44898 4.43253 5.59648C4.43253 6.93898 5.21253 7.36648 5.80503 7.57648L6.93753 7.97398V10.509H6.66753C6.06003 10.509 5.56503 9.97648 5.56503 9.32398C5.56503 9.01648 5.31003 8.76148 5.00253 8.76148C4.69503 8.76148 4.44003 9.01648 4.44003 9.32398C4.44003 10.599 5.43753 11.634 6.66753 11.634H6.93753V12.0765C6.93753 12.384 7.19253 12.639 7.50003 12.639C7.80753 12.639 8.06253 12.384 8.06253 12.0765V11.6415H8.55003C9.66003 11.6415 10.5675 10.704 10.5675 9.55648C10.56 8.20648 9.78003 7.77898 9.19503 7.57648ZM6.18003 6.51898C5.79753 6.38398 5.56503 6.25648 5.56503 5.60398C5.56503 5.07148 5.96253 4.64398 6.45753 4.64398H6.94503V6.78898L6.18003 6.51898ZM8.55003 10.5165H8.06253V8.37148L8.82003 8.63398C9.20253 8.76898 9.43503 8.89648 9.43503 9.54898C9.43503 10.0815 9.03753 10.5165 8.55003 10.5165Z" fill="white"/>
</svg>
