<svg width="14" height="14" viewBox="0 0 14 14" fill="none" xmlns="http://www.w3.org/2000/svg">
<path fill-rule="evenodd" clip-rule="evenodd" d="M11.8849 6.6579C11.8849 9.30305 9.74061 11.4474 7.09546 11.4474C4.4503 11.4474 2.30598 9.30305 2.30598 6.6579C2.30598 4.01274 4.4503 1.86842 7.09546 1.86842C9.74061 1.86842 11.8849 4.01274 11.8849 6.6579ZM11.9068 10.5016C12.7494 9.44812 13.2534 8.11185 13.2534 6.6579C13.2534 3.25698 10.4964 0.5 7.09546 0.5C3.69454 0.5 0.937561 3.25698 0.937561 6.6579C0.937561 10.0588 3.69454 12.8158 7.09546 12.8158C8.54941 12.8158 9.88568 12.3119 10.9391 11.4692L12.7695 13.2996C13.0367 13.5668 13.47 13.5668 13.7372 13.2996C14.0044 13.0324 14.0044 12.5992 13.7372 12.332L11.9068 10.5016Z" fill="#6F767E"/>
</svg>
