<svg width="16" height="16" viewBox="0 0 16 16" fill="none" xmlns="http://www.w3.org/2000/svg">
<path d="M9.39054 1.20194L10.8005 4.02194C10.9905 4.41194 11.5005 4.78194 11.9305 4.86194L14.4805 5.28194C16.1105 5.55194 16.4905 6.73194 15.3205 7.91194L13.3305 9.90194C13.0005 10.2319 12.8105 10.8819 12.9205 11.3519L13.4905 13.8119C13.9405 15.7519 12.9005 16.5119 11.1905 15.4919L8.80054 14.0719C8.37054 13.8119 7.65054 13.8119 7.22054 14.0719L4.83054 15.4919C3.12054 16.5019 2.08054 15.7519 2.53054 13.8119L3.10054 11.3519C3.21054 10.8919 3.02054 10.2419 2.69054 9.90194L0.700541 7.91194C-0.469459 6.74194 -0.0894586 5.56194 1.54054 5.28194L4.09054 4.86194C4.52054 4.79194 5.03054 4.41194 5.22054 4.02194L6.63054 1.20194C7.38054 -0.328057 8.62054 -0.328057 9.39054 1.20194Z" fill="white"/>
</svg>
